<svg width="1200" height="560" viewBox="0 0 1200 560" fill="none" xmlns="http://www.w3.org/2000/svg"><rect width="1200" height="560" rx="24" fill="#07111f"/><rect x="24" y="24" width="1152" height="512" rx="24" fill="#0b1728" stroke="#1e3a5f" stroke-width="2"/><text x="52" y="70" fill="#38bdf8" font-size="34" font-weight="900">Step 1 — Position 1 blocks lane 1</text><text x="52" y="108" fill="#a9bdd3" font-size="22" font-weight="800">Lane 1 becomes impossible. The frog safely continues on lane 2.</text><text x="52" y="154" fill="#a9bdd3" font-size="20" font-weight="800">Position</text><g fill="#e2e8f0" font-size="24" font-weight="900"><text x="250" y="154">0</text><text x="410" y="154">1</text><text x="570" y="154">2</text><text x="730" y="154">3</text><text x="890" y="154">4</text><text x="1050" y="154">5</text></g><g fill="#0b4a9f"><rect x="50" y="190" width="116" height="54" rx="14"/><rect x="50" y="292" width="116" height="54" rx="14"/><rect x="50" y="394" width="116" height="54" rx="14"/></g><g fill="#dbeafe" font-size="24" font-weight="800"><text x="72" y="225">Lane 1</text><text x="72" y="327">Lane 2</text><text x="72" y="429">Lane 3</text></g><g transform="translate(190,180)"><rect x="0" y="0" width="950" height="78" rx="16" fill="rgba(239,68,68,.13)" stroke="rgba(148,163,184,.2)"/><rect x="0" y="102" width="950" height="78" rx="16" fill="rgba(34,197,94,.16)" stroke="rgba(148,163,184,.2)"/><rect x="0" y="204" width="950" height="78" rx="16" fill="rgba(255,255,255,.1)" stroke="rgba(148,163,184,.2)"/><g stroke="rgba(203,213,225,.45)" stroke-width="4" stroke-dasharray="34 20"><line x1="0" y1="39" x2="950" y2="39"/><line x1="0" y1="141" x2="950" y2="141"/><line x1="0" y1="243" x2="950" y2="243"/></g><g stroke="rgba(148,163,184,.18)" stroke-width="2" stroke-dasharray="8 10"><line x1="160" y1="-12" x2="160" y2="294"/><line x1="320" y1="-12" x2="320" y2="294"/><line x1="480" y1="-12" x2="480" y2="294"/><line x1="640" y1="-12" x2="640" y2="294"/><line x1="800" y1="-12" x2="800" y2="294"/></g><rect x="800" y="0" width="86" height="282" rx="16" fill="rgba(34,197,94,.16)" stroke="rgba(34,197,94,.6)" stroke-width="3"/><text x="824" y="52" font-size="44">⚑</text><text x="824" y="154" font-size="44">⚑</text><text x="824" y="256" font-size="44">⚑</text><rect x="205" y="13" width="66" height="52" rx="10" fill="#ef4444"/><text x="225" y="52" fill="white" font-size="40" font-weight="900">×</text><rect x="365" y="115" width="66" height="52" rx="10" fill="#ef4444" opacity=".55"/><text x="385" y="154" fill="white" font-size="40" font-weight="900">×</text><rect x="525" y="217" width="66" height="52" rx="10" fill="#ef4444" opacity=".55"/><text x="545" y="256" fill="white" font-size="40" font-weight="900">×</text><circle cx="238" cy="141" r="38" fill="rgba(34,197,94,.24)"/><text x="214" y="158" font-size="44">🐸</text></g><text x="52" y="505" fill="#f8fafc" font-size="25" font-weight="900" font-family="monospace">DP = [∞, 0, 1]</text></svg>