<svg width="1200" height="560" viewBox="0 0 1200 560" fill="none" xmlns="http://www.w3.org/2000/svg"><rect width="1200" height="560" rx="24" fill="#07111f"/><rect x="24" y="24" width="1152" height="512" rx="24" fill="#0b1728" stroke="#1e3a5f" stroke-width="2"/><text x="52" y="70" fill="#38bdf8" font-size="34" font-weight="900">Step 4 — Final answer state</text><text x="52" y="108" fill="#a9bdd3" font-size="22" font-weight="800">All lanes reopen. The minimum side jumps required is 2.</text><g transform="translate(190,180)"><rect x="0" y="0" width="950" height="78" rx="16" fill="rgba(34,197,94,.16)"/><rect x="0" y="102" width="950" height="78" rx="16" fill="rgba(255,255,255,.1)"/><rect x="0" y="204" width="950" height="78" rx="16" fill="rgba(255,255,255,.1)"/><g stroke="rgba(203,213,225,.45)" stroke-width="4" stroke-dasharray="34 20"><line x1="0" y1="39" x2="950" y2="39"/><line x1="0" y1="141" x2="950" y2="141"/><line x1="0" y1="243" x2="950" y2="243"/></g><rect x="800" y="0" width="86" height="282" rx="16" fill="rgba(34,197,94,.18)" stroke="rgba(34,197,94,.7)" stroke-width="3"/><text x="824" y="52" font-size="44">⚑</text><text x="824" y="154" font-size="44">⚑</text><text x="824" y="256" font-size="44">⚑</text><rect x="205" y="13" width="66" height="52" rx="10" fill="#ef4444" opacity=".35"/><rect x="365" y="115" width="66" height="52" rx="10" fill="#ef4444" opacity=".35"/><rect x="525" y="217" width="66" height="52" rx="10" fill="#ef4444" opacity=".35"/><text x="225" y="52" fill="white" font-size="40" font-weight="900">×</text><text x="385" y="154" fill="white" font-size="40" font-weight="900">×</text><text x="545" y="256" fill="white" font-size="40" font-weight="900">×</text><circle cx="820" cy="39" r="38" fill="rgba(34,197,94,.24)"/><text x="796" y="56" font-size="44">🐸</text></g><text x="52" y="505" fill="#f8fafc" font-size="25" font-weight="900" font-family="monospace">Final DP = [2, 3, 3] → Answer = 2</text></svg>