<svg width="1200" height="560" viewBox="0 0 1200 560" fill="none" xmlns="http://www.w3.org/2000/svg"><rect width="1200" height="560" rx="24" fill="#07111f"/><rect x="24" y="24" width="1152" height="512" rx="24" fill="#0b1728" stroke="#1e3a5f" stroke-width="2"/><text x="52" y="70" fill="#38bdf8" font-size="34" font-weight="900">Step 2 — Position 2 blocks lane 2</text><text x="52" y="108" fill="#a9bdd3" font-size="22" font-weight="800">The frog side-jumps to lane 3 because lane 2 becomes unsafe.</text><defs><marker id="a" markerWidth="10" markerHeight="10" refX="7" refY="3" orient="auto"><path d="M0,0 L0,6 L8,3 z" fill="#0ea5e9"/></marker></defs><g transform="translate(190,180)"><rect x="0" y="0" width="950" height="78" rx="16" fill="rgba(255,255,255,.1)"/><rect x="0" y="102" width="950" height="78" rx="16" fill="rgba(239,68,68,.15)"/><rect x="0" y="204" width="950" height="78" rx="16" fill="rgba(34,197,94,.16)"/><g stroke="rgba(203,213,225,.45)" stroke-width="4" stroke-dasharray="34 20"><line x1="0" y1="39" x2="950" y2="39"/><line x1="0" y1="141" x2="950" y2="141"/><line x1="0" y1="243" x2="950" y2="243"/></g><path d="M280 141 C320 160, 340 220, 390 243" stroke="#0ea5e9" stroke-width="5" stroke-dasharray="12 10" fill="none" marker-end="url(#a)"/><rect x="205" y="13" width="66" height="52" rx="10" fill="#ef4444" opacity=".45"/><rect x="365" y="115" width="66" height="52" rx="10" fill="#ef4444"/><rect x="525" y="217" width="66" height="52" rx="10" fill="#ef4444" opacity=".45"/><text x="225" y="52" fill="white" font-size="40" font-weight="900">×</text><text x="385" y="154" fill="white" font-size="40" font-weight="900">×</text><text x="545" y="256" fill="white" font-size="40" font-weight="900">×</text><circle cx="398" cy="243" r="38" fill="rgba(34,197,94,.24)"/><text x="374" y="260" font-size="44">🐸</text></g><text x="52" y="505" fill="#f8fafc" font-size="25" font-weight="900" font-family="monospace">DP = [2, ∞, 1]</text></svg>