<svg xmlns="http://www.w3.org/2000/svg" viewBox="0 0 920 220" role="img" aria-label="Senior Dev Accelerator logo">
  <defs>
    <linearGradient id="iconBg" x1="20" y1="20" x2="200" y2="200" gradientUnits="userSpaceOnUse">
      <stop offset="0" stop-color="#0ea5e9"/>
      <stop offset="0.52" stop-color="#2563eb"/>
      <stop offset="1" stop-color="#9333ea"/>
    </linearGradient>
    <linearGradient id="rocket" x1="91" y1="48" x2="142" y2="160" gradientUnits="userSpaceOnUse">
      <stop offset="0" stop-color="#ffffff"/>
      <stop offset="0.6" stop-color="#e5edf7"/>
      <stop offset="1" stop-color="#94a3b8"/>
    </linearGradient>
    <linearGradient id="flame" x1="105" y1="145" x2="90" y2="196" gradientUnits="userSpaceOnUse">
      <stop offset="0" stop-color="#fff7ad"/>
      <stop offset="0.45" stop-color="#f97316"/>
      <stop offset="1" stop-color="#ef4444"/>
    </linearGradient>
    <linearGradient id="accentText" x1="324" y1="114" x2="690" y2="180" gradientUnits="userSpaceOnUse">
      <stop offset="0" stop-color="#38bdf8"/>
      <stop offset="1" stop-color="#2563eb"/>
    </linearGradient>
    <filter id="softShadow" x="-20%" y="-20%" width="150%" height="150%">
      <feDropShadow dx="0" dy="10" stdDeviation="10" flood-color="#020617" flood-opacity="0.28"/>
    </filter>
  </defs>

  <rect width="920" height="220" rx="32" fill="transparent"/>

  <g filter="url(#softShadow)">
    <rect x="28" y="28" width="164" height="164" rx="40" fill="url(#iconBg)"/>
    <path d="M72 102 48 119l24 17" fill="none" stroke="#eaf6ff" stroke-width="12" stroke-linecap="round" stroke-linejoin="round" opacity="0.94"/>
    <path d="M148 102 172 119l-24 17" fill="none" stroke="#eaf6ff" stroke-width="12" stroke-linecap="round" stroke-linejoin="round" opacity="0.94"/>
    <path d="M88 145c-7 6-16 9-28 11 3-11 7-21 13-28l15 17Z" fill="#334155"/>
    <path d="M134 130c6 10 8 23 5 38-10-10-18-21-22-33l17-5Z" fill="#334155"/>
    <path d="M78 160c6-3 15-9 23-21l16 15c-12 11-24 17-36 20 2-5 1-9-3-14Z" fill="url(#flame)"/>
    <path d="M92 135c4-29 24-56 57-80 1 38-12 67-37 86l-20-6Z" fill="url(#rocket)"/>
    <path d="M117 74c10-8 20-14 31-18-2 13-5 24-10 34l-21-16Z" fill="#1e293b" opacity="0.9"/>
    <circle cx="119" cy="93" r="12" fill="#0f172a"/>
    <circle cx="119" cy="93" r="8" fill="#f97316"/>
    <path d="M96 136 85 166l29-19" fill="#cbd5e1" opacity="0.92"/>
    <path d="M80 58 85 68l10 5-10 5-5 10-5-10-10-5 10-5 5-10Z" fill="#facc15"/>
    <path d="M151 63 154 71l8 3-8 3-3 8-3-8-8-3 8-3 3-8Z" fill="#ffffff"/>
  </g>

  <g font-family="Inter, ui-sans-serif, system-ui, -apple-system, Segoe UI, sans-serif" font-weight="900">
    <text x="230" y="98" font-size="58" fill="#eef7ff">Senior Dev</text>
    <text x="230" y="158" font-size="58" fill="url(#accentText)">Accelerator</text>
  </g>
</svg>
